<svg xmlns="http://www.w3.org/2000/svg" id="Layer_1" data-name="Layer 1" viewBox="0 0 2428.22 316.93"><defs><style>.cls-1{fill:#051274;}</style></defs><rect class="cls-1" x="613.67" width="261.02" height="56.51"/><rect class="cls-1" width="261.02" height="56.51"/><path class="cls-1" d="M362.73,221.54V.45H306.21V216.11a98.35,98.35,0,0,0,10.4,44.31,100.28,100.28,0,0,0,45.66,46.11,98.25,98.25,0,0,0,44.31,10.4h160.5V260.42L401.16,260A45.08,45.08,0,0,1,362.73,221.54Z"/><polygon class="cls-1" points="1232 0 1168.7 0 1139.77 56.52 1070.6 192.15 1001.42 56.52 972.49 0 909.19 0 938.13 56.52 1070.6 316.48 1203.07 56.52 1232 0"/><polygon class="cls-1" points="1306.59 0 1174.12 259.97 1145.18 316.48 1208.48 316.48 1237.41 259.97 1306.59 124.33 1375.76 259.97 1404.69 316.48 1467.99 316.48 1439.05 259.97 1306.59 0"/><polygon class="cls-1" points="1405.58 56.97 1535.34 56.97 1535.34 316.93 1591.85 316.93 1591.85 56.97 1721.61 56.97 1721.61 0.45 1405.58 0.45 1405.58 56.97"/><path class="cls-1" d="M2027.21,158.24a101.73,101.73,0,1,1-203.45,0V0h-56.51V158.24c0,87.26,71,158.24,158.24,158.24s158.24-71,158.24-158.24V0h-56.52Z"/><path class="cls-1" d="M2428.22,87.26V85.45A85.67,85.67,0,0,0,2342.77,0h-128.4c-47,0-85,38.43-85,85.45v1.81a84,84,0,0,0,14.92,48.37,79.39,79.39,0,0,0,10.85,13.57,84.52,84.52,0,0,0,59.23,24H2328.3c24,0,43.85,19.44,43.85,43.4S2352.26,260,2328.3,260h-99a43.41,43.41,0,0,1-43.4-43.41h-56.52a100,100,0,0,0,99.92,99.92h99a99.91,99.91,0,0,0,77.31-163.21c-1.35-1.36-2.26-2.71-3.62-4.07a99.26,99.26,0,0,0-73.69-32.55H2214.37a29.14,29.14,0,0,1-28.94-28.94V85.9A29.14,29.14,0,0,1,2214.37,57h128.4A29.13,29.13,0,0,1,2371.7,85.9v1.81Z"/><rect class="cls-1" x="613.67" y="259.97" width="261.02" height="56.51"/><rect class="cls-1" x="613.67" y="129.98" width="261.02" height="56.51"/><rect class="cls-1" y="259.97" width="261.02" height="56.51"/><rect class="cls-1" y="129.98" width="261.02" height="56.51"/></svg>